<svg viewBox="0 0 16 18" xmlns="http://www.w3.org/2000/svg"><path d="M1.168 5.86H1.12c-.614 0-1.115.482-1.115 1.07v4.665c0 .59.5 1.071 1.115 1.071h.049c.614 0 1.115-.482 1.115-1.071V6.93c0-.589-.502-1.072-1.116-1.072zm1.65 7.535c0 .541.46.983 1.025.983h1.095v2.519c0 .591.503 1.073 1.116 1.073h.048c.615 0 1.116-.482 1.116-1.073v-2.52H8.75v2.52c0 .591.504 1.073 1.117 1.073h.047c.615 0 1.116-.482 1.116-1.073v-2.52h1.096c.564 0 1.025-.44 1.025-.982V6.03H2.818v7.364zm7.739-11.83l.87-1.29a.173.173 0 00-.054-.246.188.188 0 00-.256.052l-.902 1.335A6.092 6.092 0 007.985 1a6.1 6.1 0 00-2.232.416L4.853.08a.19.19 0 00-.257-.05.173.173 0 00-.055.246l.871 1.29c-1.57.739-2.628 2.131-2.628 3.729 0 .098.006.195.015.29H13.17c.009-.095.014-.192.014-.29 0-1.598-1.059-2.99-2.628-3.73zM5.58 3.875a.489.489 0 01-.5-.48c0-.265.224-.478.5-.478.277 0 .5.213.5.478a.489.489 0 01-.5.48zm4.809 0a.489.489 0 01-.5-.48c0-.265.224-.478.5-.478s.498.213.498.478a.488.488 0 01-.498.48zm4.458 1.985h-.046c-.614 0-1.117.482-1.117 1.07v4.665c0 .59.503 1.071 1.117 1.071h.047c.615 0 1.115-.482 1.115-1.071V6.93c0-.589-.501-1.072-1.116-1.072z" fill="#FFF"/></svg>