<svg viewBox="0 0 15 18" xmlns="http://www.w3.org/2000/svg"><path d="M14.52 14.452c-.513-.216-.733-.503-.712-.93.022-.5-.254-.866-.385-1.01.079-.312.31-1.386 0-2.32-.334-.999-1.352-2.525-2.403-4.025-.43-.616-.45-1.285-.474-2.06-.022-.74-.048-1.579-.45-2.51C9.66.582 8.785 0 7.694 0a3.23 3.23 0 00-1.829.572c-1.05.744-.91 2.366-.819 3.44.013.147.024.286.031.404.061 1.052.006 1.606-.067 1.774-.047.11-.279.423-.524.755-.254.343-.541.732-.777 1.094-.281.436-.508 1.103-.728 1.747-.16.471-.312.917-.46 1.183-.28.512-.21.99-.152 1.21-.106.076-.259.225-.388.505-.156.342-.473.526-1.132.657-.303.063-.512.194-.621.388-.16.283-.073.638.006.881.117.357.044.583-.088.993-.03.095-.065.202-.1.32a.59.59 0 00.06.504c.248.391.974.529 1.722.62.447.054.935.237 1.408.415.463.173.942.353 1.377.408.066.008.131.012.195.012.657 0 .954-.447 1.048-.631a11.36 11.36 0 011.889-.23 8 8 0 011.878.199c.072.142.262.466.566.633.166.093.398.147.636.147.254 0 .737-.062 1.119-.475.38-.414 1.333-.944 2.029-1.33.155-.087.3-.167.427-.24.39-.223.604-.54.585-.872a.735.735 0 00-.463-.63zm-8.647-.08c-.049-.351-.49-.7-1-1.104-.417-.33-.89-.705-1.02-1.022-.27-.654-.057-1.804.313-2.396.183-.296.332-.746.477-1.18.156-.47.317-.956.497-1.168.286-.332.55-.978.597-1.486.267.262.682.595 1.066.595a.613.613 0 00.17-.024c.263-.078.649-.307 1.022-.528.322-.191.718-.426.868-.448.256.378 1.743 3.757 1.895 4.842a5.266 5.266 0 01-.071 1.847 1.289 1.289 0 00-.177-.013c-.414 0-.524.232-.552.37-.074.36-.082 1.512-.082 1.771-.15.195-.908 1.116-1.995 1.281-.443.066-.857.1-1.23.1-.318 0-.521-.026-.606-.039l-.546-.642c.215-.109.43-.34.374-.755zm.693-10.586a.863.863 0 00-.05.024 1.073 1.073 0 00-.011-.115c-.06-.353-.288-.609-.542-.609a.373.373 0 00-.058.005c-.151.026-.27.142-.335.308.057-.363.257-.631.495-.631.278 0 .514.385.514.842 0 .057-.004.115-.013.176zm2.166.272a.916.916 0 00.04-.268c0-.414-.256-.738-.583-.738-.319 0-.578.331-.578.738 0 .028 0 .056.003.084a10.386 10.386 0 00-.05-.02A1.156 1.156 0 017.51 3.5c0-.495.308-.898.686-.898.38 0 .687.403.687.898 0 .206-.055.403-.15.559zm-.28.963c-.005.025-.016.036-.145.105a3.894 3.894 0 00-.246.14l-.067.043c-.272.168-.907.564-1.079.587-.117.016-.19-.03-.352-.144a5.075 5.075 0 00-.118-.08c-.293-.198-.482-.416-.503-.501.095-.076.333-.266.454-.379.247-.235.495-.393.617-.393l.019.001c.144.027.5.172.76.279.12.049.224.092.297.118.23.082.35.185.364.224zM10.52 16.02c.13-.6.279-1.418.255-1.9-.006-.11-.015-.229-.024-.344-.017-.215-.043-.535-.017-.63a.11.11 0 01.018-.007c0 .276.06.825.487 1.017.128.057.273.086.433.086.429 0 .904-.216 1.1-.416a2.05 2.05 0 00.278-.376.465.465 0 01.02.177c-.026.406.166.945.532 1.144l.053.029c.13.07.477.257.482.345 0 0-.003.01-.022.03-.087.08-.392.24-.687.395-.524.275-1.117.586-1.384.874-.375.406-.8.678-1.056.678a.27.27 0 01-.084-.012c-.278-.09-.507-.502-.384-1.09zm-9.49-1.533c-.028-.136-.05-.244-.026-.348.017-.078.39-.16.548-.196.223-.05.454-.101.605-.195.204-.127.314-.361.412-.568.07-.15.143-.304.23-.354a.048.048 0 01.027-.007c.162 0 .503.351.7.665.05.08.142.238.248.421.32.55.757 1.3.985 1.553.206.226.54.661.457 1.035-.06.29-.379.525-.454.577a.454.454 0 01-.101.01c-.438 0-1.303-.374-1.768-.574l-.068-.03c-.26-.112-.684-.182-1.094-.25-.326-.055-.772-.129-.846-.196-.06-.069.01-.294.07-.492.045-.142.09-.29.115-.444a1.634 1.634 0 00-.04-.607z" fill="#FFF"/></svg>