<svg xmlns="http://www.w3.org/2000/svg" viewBox="0 0 16 16"><path fill="#FFF" d="M15.98 7.467A7.998 7.998 0 008.534.018V0H7.467v.018A7.999 7.999 0 00.018 7.467H0v1.066h.018a7.998 7.998 0 007.449 7.448V16h1.066v-.02a7.997 7.997 0 007.448-7.447H16V7.467h-.02zM5.009 1.744c-.515.685-.943 1.543-1.254 2.523H2.156a6.97 6.97 0 012.852-2.523zm-3.41 3.59h1.875c-.143.673-.234 1.39-.262 2.133H1.087c.056-.751.234-1.47.51-2.134zm-.511 3.2H3.21c.028.743.12 1.459.262 2.133H1.598a6.873 6.873 0 01-.511-2.134zm1.069 3.2h1.597c.311.979.739 1.837 1.255 2.522a6.962 6.962 0 01-2.852-2.523zm5.31 3.131c-1.096-.293-2.04-1.47-2.613-3.132h2.614v3.132zm0-4.198H4.555a11.921 11.921 0 01-.277-2.134h3.19v2.134zm0-3.2H4.278c.031-.751.126-1.47.277-2.134h2.913v2.134zm0-3.2H4.854c.573-1.661 1.517-2.839 2.614-3.131v3.13zm6.378 0H12.25c-.313-.98-.74-1.838-1.257-2.523a6.977 6.977 0 012.852 2.523zm-5.31-3.131c1.095.292 2.04 1.47 2.613 3.13H8.533v-3.13zm0 4.197h2.911c.152.665.245 1.383.278 2.134h-3.19V5.333zm0 3.2h3.189c-.031.751-.126 1.47-.278 2.134H8.533V8.533zm0 6.332v-3.132h2.613c-.573 1.661-1.518 2.839-2.614 3.132zm2.458-.609c.515-.686.944-1.543 1.257-2.523h1.595a6.969 6.969 0 01-2.852 2.523zm3.41-3.59h-1.875c.143-.673.234-1.39.262-2.133h2.123a6.842 6.842 0 01-.51 2.134zm-1.613-3.2a12.682 12.682 0 00-.262-2.133h1.875c.277.665.455 1.383.511 2.134H12.79z"/></svg>